<svg width="32" height="32" viewBox="0 0 32 32" fill="none" xmlns="http://www.w3.org/2000/svg">
<g clip-path="url(#clip0)">
<path d="M16.0006 0C7.16435 0 0.000976562 7.16359 0.000976562 15.9998C0.000976562 24.8359 7.16435 32 16.0006 32C24.8369 32 32.0008 24.8359 32.0008 15.9998C32.0008 7.16359 24.8369 0 16.0006 0ZM16.0009 5.6199L25.4691 11.524H6.53278L16.0009 5.6199ZM25.587 20.952H25.5861C25.5861 21.899 24.8186 22.6664 23.8717 22.6664H8.13012C7.18313 22.6664 6.41576 21.8989 6.41576 20.952V11.8996C6.41576 11.7995 6.426 11.7021 6.44264 11.6064L15.4889 17.2473C15.5 17.2543 15.5119 17.2589 15.5233 17.2653C15.5352 17.272 15.5474 17.2784 15.5595 17.2844C15.6234 17.3174 15.6892 17.344 15.7565 17.3613C15.7635 17.3633 15.7704 17.3641 15.7773 17.3657C15.8512 17.3831 15.9259 17.394 16.0006 17.394H16.0011C16.0017 17.394 16.0022 17.394 16.0022 17.394C16.0769 17.394 16.1516 17.3834 16.2255 17.3657C16.2324 17.364 16.2393 17.3633 16.2463 17.3613C16.3135 17.344 16.3791 17.3174 16.4433 17.2844C16.4554 17.2784 16.4676 17.272 16.4795 17.2653C16.4908 17.2589 16.5028 17.2543 16.5139 17.2473L25.5602 11.6064C25.5768 11.7021 25.587 11.7993 25.587 11.8996V20.952Z" fill="black"/>
</g>
<defs>
<clipPath id="clip0">
<rect width="32" height="32" fill="white"/>
</clipPath>
</defs>
</svg>
