<svg width="32" height="32" viewBox="0 0 32 32" fill="none" xmlns="http://www.w3.org/2000/svg">
<g clip-path="url(#clip0)">
<path d="M16.0466 14.3706C17.4693 14.3706 18.6225 13.2173 18.6225 11.7947C18.6225 10.372 17.4693 9.21875 16.0466 9.21875C14.624 9.21875 13.4707 10.372 13.4707 11.7947C13.4707 13.2173 14.624 14.3706 16.0466 14.3706Z" fill="#4F4F4F"/>
<path d="M16.0006 0C7.16435 0 0.000976562 7.16359 0.000976562 15.9998C0.000976562 24.8359 7.16435 32 16.0006 32C24.8368 32 32.0008 24.8359 32.0008 15.9998C32.0008 7.16359 24.8368 0 16.0006 0ZM15.9674 7.32573C15.9787 7.32573 15.9898 7.32519 16.0009 7.32466C16.012 7.32519 16.023 7.32573 16.0344 7.32573C18.7303 7.36829 20.9234 9.59647 20.9234 12.293C20.9234 15.5899 17.4008 18.9283 16.0009 20.1245C15.9074 20.0445 15.8037 19.9543 15.6928 19.8556C15.6908 19.8539 15.6891 19.8525 15.6875 19.8509C14.1383 18.4742 11.0785 15.366 11.0785 12.293C11.0784 9.59647 13.2717 7.36839 15.9674 7.32573ZM16.0704 24.7736C13.1196 24.7736 10.1323 23.9271 10.1323 22.3098C10.1323 21.1747 11.6032 20.4199 13.4997 20.0703C13.8665 20.439 14.2137 20.7642 14.5183 21.0355C12.4526 21.2662 11.239 21.9202 11.239 22.3094C11.239 22.7877 13.0731 23.6667 16.0704 23.6667C19.0676 23.6667 20.9021 22.7877 20.9021 22.3094C20.9021 21.9122 19.6372 21.2418 17.4965 21.0239C17.8038 20.7494 18.1538 20.4213 18.5234 20.0487C20.4768 20.3888 22.0087 21.1511 22.0087 22.3098C22.0087 23.9271 19.0213 24.7736 16.0704 24.7736Z" fill="#4F4F4F"/>
</g>
<defs>
<clipPath id="clip0">
<rect width="32" height="32" fill="white"/>
</clipPath>
</defs>
</svg>
