<svg width="32" height="32" viewBox="0 0 32 32" fill="none" xmlns="http://www.w3.org/2000/svg">
<g clip-path="url(#clip0)">
<path d="M15.9994 0.000976562C7.16343 0.000976562 0 7.16462 0 16.0009C0 24.837 7.16343 32.0009 15.9994 32.0009C24.836 32.0009 32 24.8369 32 16.0009C32 7.16462 24.836 0.000976562 15.9994 0.000976562ZM22.5014 23.162V24.2686C22.5014 24.8797 22.0059 25.3752 21.3948 25.3752H20.2882H14.1808H10.3286C9.10639 25.3752 8.11534 24.3842 8.11534 23.1619V9.23751C8.11534 8.0153 9.10629 7.02424 10.3286 7.02424H14.1807H20.2881H21.3947C22.0058 7.02424 22.5013 7.51972 22.5013 8.13082V9.23751H22.5014V23.162ZM24.7145 9.23751V23.162V24.2686C24.7145 24.8797 24.2191 25.3752 23.608 25.3752H23.3087C23.4979 25.0493 23.608 24.6719 23.608 24.2686V23.162V9.23751V8.13103C23.608 7.72772 23.4979 7.35033 23.3087 7.02445H23.608C24.2191 7.02445 24.7145 7.51993 24.7145 8.13103V9.23751Z" fill="black"/>
<path d="M18.7301 17.6552C18.7301 17.6552 18.3131 17.1548 17.8514 17.5C17.5073 17.7573 16.889 18.3295 16.7404 18.4684C16.7404 18.4684 15.7068 17.9173 15.0951 17.4141C14.1891 16.669 13.5832 15.7492 13.2656 15.226L13.0285 14.7789C13.1112 14.6899 13.7443 14.0121 14.0181 13.6441C14.3628 13.1826 13.8632 12.7657 13.8632 12.7657C13.8632 12.7657 12.457 11.3595 12.1369 11.0805C11.8166 10.8008 11.4477 10.956 11.4477 10.956C10.7741 11.3915 10.076 11.7697 10.0345 13.5893C10.0332 15.2926 11.3262 17.0494 12.7242 18.4094C14.1249 19.9456 16.0482 21.485 17.907 21.4833C19.7262 21.4423 20.1042 20.744 20.5394 20.0704C20.5394 20.0704 20.6951 19.7019 20.4157 19.3816C20.1363 19.0607 18.7301 17.6552 18.7301 17.6552Z" fill="black"/>
</g>
<defs>
<clipPath id="clip0">
<rect width="32" height="32" fill="white"/>
</clipPath>
</defs>
</svg>
