<svg width="129" height="130" viewBox="0 0 129 130" fill="none" xmlns="http://www.w3.org/2000/svg">
<path d="M56.7799 109.76L47.0038 104.412C43.7951 107.544 37.6336 109.387 36.846 109.612L36.3022 109.767L35.7604 109.61C34.9707 109.385 28.8112 107.542 25.6025 104.41L15.8265 109.758C10.5506 112.645 7.07405 117.946 6.42432 123.906H14.3111V115.781H18.3095V123.906H54.2949V115.781H58.2932V123.906H66.18C65.5303 117.946 62.0537 112.645 56.7799 109.76Z" fill="#4F4F4F"/>
<path d="M47.4515 100.043L58.2931 105.974V93.4373H54.2948C52.0897 93.4373 50.2964 91.6153 50.2964 89.3748V86.2061C48.701 88.8304 46.6779 91.1786 44.2988 93.1286V94.6784C44.2988 96.9229 45.5063 98.9806 47.4515 100.043Z" fill="#4F4F4F"/>
<path d="M74.2866 35.5472C74.2866 36.9203 75.1923 38.072 76.4238 38.4498C76.3418 37.8323 76.2858 37.2047 76.2858 36.5628C76.2858 35.1653 76.4937 33.8186 76.8636 32.543C75.4102 32.7542 74.2866 34.0136 74.2866 35.5472Z" fill="#4F4F4F"/>
<path d="M50.2962 69.062H49.5066C44.8325 69.062 40.2963 67.7904 36.3019 65.3691C32.3076 67.7904 27.7694 69.062 23.0973 69.062H22.3076V72.0195C22.3076 81.3002 27.9013 89.7502 36.3019 93.2846C44.7025 89.7502 50.2962 81.3023 50.2962 72.0195V69.062Z" fill="#4F4F4F"/>
<path d="M37.0058 97.3724L36.3021 97.6385L35.5984 97.3724C34.4269 96.9255 33.3073 96.3893 32.2277 95.79C31.9639 98.2336 30.8463 100.474 29.093 102.121C30.9623 103.549 34.083 104.843 36.3001 105.538C38.5172 104.843 41.6379 103.549 43.5072 102.121C41.7559 100.474 40.6363 98.2336 40.3724 95.79C39.2969 96.3893 38.1753 96.9255 37.0058 97.3724Z" fill="#4F4F4F"/>
<path d="M28.3053 94.6786V93.1267C22.1279 88.0669 18.3094 80.3298 18.3094 72.02V65H23.0975C27.4177 65 31.6 63.7142 35.1945 61.2788L36.3021 60.5272L37.4116 61.2788C41.0062 63.7142 45.1865 65 49.5067 65H50.2964C50.2964 62.7595 52.0897 60.9375 54.2948 60.9375H56.7758C53.5231 52.453 45.4544 46.7188 36.3021 46.7188C24.177 46.7188 14.311 56.743 14.311 69.0625V105.974L25.1526 100.043C27.0978 98.9808 28.3053 96.9231 28.3053 94.6786Z" fill="#4F4F4F"/>
<path d="M70.2783 63.9152C75.7621 68.3962 82.7133 71.0937 90.2802 71.0937C97.8471 71.0937 104.798 68.3962 110.282 63.9152C107.423 57.5209 101.736 52.8815 95.1122 51.3418L96.3837 61.6707L90.2802 67.8721L84.1767 61.6707L85.4482 51.3418C78.8249 52.8835 73.1372 57.5209 70.2783 63.9152Z" fill="#4F4F4F"/>
<path d="M90.28 6.09375C72.6431 6.09375 58.293 20.6741 58.293 38.5938C58.293 47.3058 61.7016 55.2094 67.2133 61.0513C70.3501 54.8905 75.7559 50.2572 82.1173 48.0898C80.2141 46.6944 78.6747 44.8277 77.6551 42.6583H77.2852C73.4268 42.6583 70.2881 39.4692 70.2881 35.5489C70.2881 33.6192 71.0538 31.8723 72.2873 30.5886V28.4375C72.2873 18.3584 80.358 10.1562 90.28 10.1562C100.202 10.1562 108.273 18.3584 108.273 28.4375V30.5866C109.506 31.8683 110.272 33.6172 110.272 35.5469C110.272 39.4672 107.133 42.6562 103.275 42.6562H102.905C101.885 44.8277 100.346 46.6923 98.4426 48.0878C104.804 50.2552 110.212 54.8905 113.347 61.0492C118.858 55.2094 122.267 47.3058 122.267 38.5938C122.267 20.6741 107.917 6.09375 90.28 6.09375Z" fill="#4F4F4F"/>
<path d="M89.5422 50.8097L88.3867 60.2022L90.2799 62.1278L92.1732 60.2042L91.0176 50.8117C90.7717 50.8016 90.5278 50.7812 90.2799 50.7812C90.032 50.7812 89.7881 50.8016 89.5422 50.8097Z" fill="#4F4F4F"/>
<path d="M106.273 35.5472C106.273 34.0136 105.15 32.7542 103.697 32.543C104.066 33.8186 104.274 35.1653 104.274 36.5628C104.274 37.2047 104.218 37.8303 104.136 38.4498C105.368 38.072 106.273 36.9203 106.273 35.5472Z" fill="#4F4F4F"/>
<path d="M90.2801 46.7188C95.8007 46.7188 100.276 42.1716 100.276 36.5625C100.276 30.9534 95.8007 26.4062 90.2801 26.4062C84.7595 26.4062 80.2842 30.9534 80.2842 36.5625C80.2842 42.1716 84.7595 46.7188 90.2801 46.7188Z" fill="#4F4F4F"/>
<path d="M78.8129 28.4375C81.3458 24.7589 85.5381 22.3438 90.2802 22.3438C95.0223 22.3438 99.2166 24.7589 101.748 28.4375H103.275C103.617 28.4375 103.945 28.4923 104.275 28.5411V28.4375C104.275 20.5969 97.9951 14.2188 90.2802 14.2188C82.5653 14.2188 76.2859 20.5969 76.2859 28.4375V28.5411C76.6158 28.4923 76.9436 28.4375 77.2855 28.4375H78.8129Z" fill="#4F4F4F"/>
<path d="M108.273 117.573C108.273 120.52 106.318 123.228 103.471 123.788C99.6423 124.544 96.2776 121.57 96.2776 117.812V113.75C96.2776 108.142 91.8014 103.594 86.2817 103.594H76.2857C72.9731 103.594 70.2882 100.866 70.2882 97.5V81.25C70.2882 78.1909 68.6049 75.5605 66.1479 74.1731C65.9959 72.4222 65.724 70.7809 65.3042 69.292C64.5865 66.7652 62.2295 65 59.5685 65H54.2947V69.0625H56.2939C59.6005 69.0625 62.2914 71.7966 62.2914 75.1562V77.1875V79.2187C62.2914 82.5784 59.6005 85.3125 56.2939 85.3125H54.2947V89.375H59.5685C62.2295 89.375 64.5885 87.6098 65.3042 85.0809C65.722 83.6002 65.9939 81.967 66.1459 80.2262C66.2298 80.5553 66.2898 80.8945 66.2898 81.25V97.5C66.2898 103.108 70.766 107.656 76.2857 107.656H86.2817C89.5943 107.656 92.2792 110.384 92.2792 113.75V117.36C92.2792 122.661 96.0837 127.404 101.276 127.92C107.233 128.509 112.271 123.748 112.271 117.812V67.4903C111.002 68.4897 109.668 69.4037 108.273 70.2244V117.573Z" fill="#4F4F4F"/>
</svg>
