<svg width="130" height="130" viewBox="0 0 130 130" fill="none" xmlns="http://www.w3.org/2000/svg">
<path d="M85.3125 32.5H71.0938C70.555 32.5 70.0384 32.286 69.6574 31.9051C69.2765 31.5241 69.0625 31.0075 69.0625 30.4688V16.25H24.375V85.3125H85.3125V32.5ZM54.8438 77.1875C50.4246 77.1875 46.1046 75.8771 42.4302 73.4219C38.7558 70.9667 35.892 67.4771 34.2008 63.3943C32.5097 59.3115 32.0672 54.819 32.9293 50.4847C33.7915 46.1504 35.9195 42.1692 39.0443 39.0443C42.1692 35.9195 46.1504 33.7915 50.4847 32.9293C54.819 32.0672 59.3115 32.5097 63.3943 34.2008C67.4771 35.892 70.9667 38.7558 73.4219 42.4302C75.8771 46.1046 77.1875 50.4246 77.1875 54.8438C77.1805 60.7675 74.8242 66.4467 70.6355 70.6355C66.4467 74.8242 60.7675 77.1805 54.8438 77.1875Z" fill="#4F4F4F"/>
<path d="M12.1875 109.688H97.5V101.562H12.1875C11.1101 101.562 10.0767 101.991 9.31488 102.752C8.55301 103.514 8.125 104.548 8.125 105.625C8.125 106.702 8.55301 107.736 9.31488 108.498C10.0767 109.259 11.1101 109.688 12.1875 109.688Z" fill="#4F4F4F"/>
<path d="M106.752 112.06L109.688 114.018V97.5H101.562V114.018L104.498 112.06C104.831 111.837 105.224 111.718 105.625 111.718C106.026 111.718 106.419 111.837 106.752 112.06Z" fill="#4F4F4F"/>
<path d="M54.8438 36.5625C51.2281 36.5625 47.6936 37.6347 44.6872 39.6434C41.6809 41.6522 39.3377 44.5074 37.9541 47.8478C36.5704 51.1883 36.2084 54.864 36.9138 58.4102C37.6192 61.9565 39.3603 65.2139 41.917 67.7705C44.4736 70.3272 47.731 72.0683 51.2773 72.7737C54.8235 73.4791 58.4992 73.1171 61.8397 71.7334C65.1801 70.3498 68.0353 68.0066 70.0441 65.0003C72.0528 61.9939 73.125 58.4594 73.125 54.8438C73.1196 49.9969 71.1918 45.3501 67.7646 41.9229C64.3374 38.4957 59.6906 36.5679 54.8438 36.5625ZM50.1861 64.4048C49.8052 64.7856 49.2886 64.9996 48.75 64.9996C48.2114 64.9996 47.6948 64.7856 47.3139 64.4048L41.5695 58.6605L44.4417 55.7883L48.75 60.0966L64.5491 44.2975L67.4213 47.1697L50.1861 64.4048Z" fill="#4F4F4F"/>
<path d="M113.75 101.562H121.875V109.688H113.75V101.562Z" fill="#4F4F4F"/>
<path d="M72.5156 12.7827L88.79 29.0611C89.171 29.4419 89.385 29.9585 89.3852 30.4972V85.3125H93.4477V8.125H32.5V12.1875H71.0694C71.3378 12.1862 71.6038 12.2382 71.8521 12.3403C72.1003 12.4425 72.3258 12.5928 72.5156 12.7827Z" fill="#4F4F4F"/>
<path d="M82.4139 28.4374L73.125 19.1465V28.4374H82.4139Z" fill="#4F4F4F"/>
<path d="M113.75 117.812C113.75 118.18 113.65 118.541 113.461 118.857C113.272 119.172 113.001 119.43 112.677 119.604C112.353 119.777 111.988 119.86 111.62 119.842C111.253 119.824 110.897 119.707 110.591 119.503L105.625 116.188L100.659 119.498C100.353 119.702 99.9978 119.82 99.6308 119.838C99.2639 119.856 98.8989 119.774 98.5748 119.601C98.2506 119.428 97.9795 119.17 97.7903 118.855C97.601 118.54 97.5007 118.18 97.5 117.812V113.75H12.1875C11.1101 113.75 10.0767 114.178 9.31488 114.94C8.55301 115.702 8.125 116.735 8.125 117.812C8.125 118.89 8.55301 119.923 9.31488 120.685C10.0767 121.447 11.1101 121.875 12.1875 121.875H121.875V113.75H113.75V117.812Z" fill="#4F4F4F"/>
<path d="M106.868 69.0625L109.651 74.6769L112.483 69.0625H106.868Z" fill="#4F4F4F"/>
<path d="M8.125 93.4375C8.125 94.5149 8.55301 95.5483 9.31488 96.3101C10.0767 97.072 11.1101 97.5 12.1875 97.5H97.5V95.4688C97.5 94.93 97.714 94.4134 98.0949 94.0324C98.4759 93.6515 98.9925 93.4375 99.5312 93.4375H111.719C112.257 93.4375 112.774 93.6515 113.155 94.0324C113.536 94.4134 113.75 94.93 113.75 95.4688V97.5H121.875V89.375H12.1875C11.1101 89.375 10.0767 89.803 9.31488 90.5649C8.55301 91.3267 8.125 92.3601 8.125 93.4375Z" fill="#4F4F4F"/>
<path d="M105.625 20.3125H113.75V24.375H105.625V20.3125Z" fill="#4F4F4F"/>
<path d="M105.625 28.4375H113.75V65H105.625V28.4375Z" fill="#4F4F4F"/>
<path d="M111.719 10.1562C111.719 9.61753 111.505 9.10087 111.124 8.71994C110.743 8.33901 110.226 8.125 109.688 8.125C109.149 8.125 108.632 8.33901 108.251 8.71994C107.87 9.10087 107.656 9.61753 107.656 10.1562V16.25H111.719V10.1562Z" fill="#4F4F4F"/>
<path d="M123.906 24.375H113.75V28.4375H121.875V42.6562H125.938V26.4062C125.938 25.8675 125.723 25.3509 125.343 24.9699C124.962 24.589 124.445 24.375 123.906 24.375Z" fill="#4F4F4F"/>
</svg>
