<svg width="130" height="130" viewBox="0 0 130 130" fill="none" xmlns="http://www.w3.org/2000/svg">
<g clip-path="url(#clip0)">
<path d="M30.1241 44.5963C35.1069 44.5963 39.1463 40.5569 39.1463 35.574C39.1463 30.5912 35.1069 26.5518 30.1241 26.5518C25.1412 26.5518 21.1018 30.5912 21.1018 35.574C21.1018 40.5569 25.1412 44.5963 30.1241 44.5963Z" fill="#4F4F4F"/>
<path d="M39.1476 80.4984V60.2046C47.2173 59.9427 55.0263 58.0288 62.3354 54.2633C67.1857 51.7646 62.9052 44.4655 58.0662 46.9604C51.7957 50.191 45.1375 51.6224 38.2499 51.7658C37.0828 49.7309 34.8946 48.3569 32.3809 48.3569H27.8698C24.1317 48.3569 21.1018 51.3868 21.1018 55.1236V80.4984C21.1018 82.2328 21.7589 83.8076 22.8312 85.0058C23.8075 96.4246 23.3998 107.788 17.0757 117.836C14.1593 122.468 21.4821 126.707 24.3785 122.105C31.0754 111.468 32.2225 99.417 31.4507 87.2651H31.7101C34.4158 95.8099 35.5828 104.549 35.6701 113.579C35.7237 119.031 44.1812 119.036 44.1288 113.579C44.0265 102.861 42.5415 92.3311 38.9157 82.2253C39.0603 81.6717 39.1476 81.0957 39.1476 80.4984Z" fill="#4F4F4F"/>
<path d="M0 5.91113V69.5009H18.547V64.5135H4.98744V10.8986H125.013V64.5135H41.5802V69.5009H130V5.91113H0Z" fill="#4F4F4F"/>
<path d="M130 72.8262H41.5803V77.8136H130V72.8262Z" fill="#4F4F4F"/>
<path d="M18.547 72.8262H0V77.8136H18.547V72.8262Z" fill="#4F4F4F"/>
<path d="M90.5732 59.4705C93.0868 59.4705 95.4808 58.6863 97.5231 57.215C99.5667 58.6863 101.961 59.4705 104.473 59.4705C111.06 59.4705 116.422 54.1103 116.422 47.5219C116.422 40.9335 111.06 35.5732 104.473 35.5732C101.959 35.5732 99.5655 36.3575 97.5231 37.8288C95.4795 36.3575 93.0856 35.5732 90.5732 35.5732C83.986 35.5732 78.6245 40.9335 78.6245 47.5219C78.6245 54.1103 83.9848 59.4705 90.5732 59.4705ZM104.473 36.4922C110.554 36.4922 115.503 41.441 115.503 47.5219C115.503 53.6028 110.554 58.5516 104.473 58.5516C102.248 58.5516 100.118 57.8908 98.28 56.6339C100.983 54.3547 102.519 51.0667 102.519 47.5206C102.519 43.9758 100.983 40.6879 98.28 38.4074C100.118 37.153 102.248 36.4922 104.473 36.4922ZM101.602 47.5219C101.602 50.861 100.114 53.942 97.5231 56.0504C94.9334 53.942 93.4447 50.8597 93.4447 47.5219C93.4447 44.184 94.9334 41.1031 97.5231 38.9934C100.114 41.1018 101.602 44.184 101.602 47.5219ZM90.5732 36.4922C92.7988 36.4922 94.9297 37.153 96.7663 38.4086C94.0631 40.6891 92.527 43.9758 92.527 47.5219C92.527 51.068 94.0631 54.3547 96.7663 56.6352C94.9297 57.8908 92.7988 58.5528 90.5732 58.5528C84.4922 58.5528 79.5434 53.6041 79.5434 47.5231C79.5434 41.441 84.4922 36.4922 90.5732 36.4922Z" fill="#4F4F4F"/>
<path d="M78.0922 19.4678C77.4027 19.4678 76.8453 20.0264 76.8453 20.7146V29.4227C67.9415 24.1597 56.7485 24.1435 46.826 24.1435C46.1364 24.1435 45.5791 24.7021 45.5791 25.3904C45.5791 26.0786 46.1364 26.6372 46.826 26.6372C56.4068 26.6372 67.2146 26.6522 75.5299 31.5436L67.6909 34.4026C67.0425 34.6383 66.7109 35.354 66.9453 36.0011C67.1298 36.5073 67.6074 36.8216 68.1161 36.8216C68.257 36.8216 68.4016 36.7966 68.5437 36.7455L78.5174 33.1084C79.0099 32.9289 79.3366 32.4613 79.3366 31.9376V30.0673V20.7159C79.3391 20.0264 78.7817 19.4678 78.0922 19.4678Z" fill="#4F4F4F"/>
</g>
<defs>
<clipPath id="clip0">
<rect width="130" height="130" fill="white"/>
</clipPath>
</defs>
</svg>
