<svg width="130" height="130" viewBox="0 0 130 130" fill="none" xmlns="http://www.w3.org/2000/svg">
<path d="M38.5938 62.9688H56.875V73.125H38.5938V62.9688Z" fill="#4F4F4F"/>
<path d="M47.0072 81.25C47.4177 79.6727 48.2957 78.2565 49.526 77.1875H25.6304C26.8606 78.2565 27.7387 79.6727 28.1491 81.25H47.0072Z" fill="#4F4F4F"/>
<path d="M46.7188 48.75H38.5938V58.9062H56.875C56.8718 56.2136 55.8007 53.6322 53.8967 51.7283C51.9928 49.8243 49.4114 48.7532 46.7188 48.75Z" fill="#4F4F4F"/>
<path d="M12.1875 62.9688H34.5312V73.125H12.1875V62.9688Z" fill="#4F4F4F"/>
<path d="M54.8438 87.3438C57.0874 87.3438 58.9062 85.5249 58.9062 83.2812C58.9062 81.0376 57.0874 79.2188 54.8438 79.2188C52.6001 79.2188 50.7812 81.0376 50.7812 83.2812C50.7812 85.5249 52.6001 87.3438 54.8438 87.3438Z" fill="#4F4F4F"/>
<path d="M49.526 89.375C48.2957 88.306 47.4177 86.8898 47.0072 85.3125H28.1491C27.7387 86.8898 26.8606 88.306 25.6304 89.375H49.526Z" fill="#4F4F4F"/>
<path d="M34.5313 48.75H24.375C21.4977 48.7553 18.7148 49.7775 16.5181 51.636C14.3214 53.4944 12.8523 56.0695 12.3704 58.9062H34.5313V48.75Z" fill="#4F4F4F"/>
<path d="M73.1251 77.1875H60.1616C61.3919 78.2565 62.2699 79.6727 62.6804 81.25H73.1251V77.1875Z" fill="#4F4F4F"/>
<path d="M44.6875 20.3125H48.75V24.375H44.6875V20.3125Z" fill="#4F4F4F"/>
<path d="M69.0625 14.2188C69.0618 13.5366 69.1299 12.856 69.2656 12.1875H40.625V16.25H69.2656C69.1299 15.5815 69.0618 14.9009 69.0625 14.2188Z" fill="#4F4F4F"/>
<path d="M85.3125 73.125H109.688V54.8438C109.688 53.2276 109.045 51.6776 107.903 50.5348C106.76 49.392 105.21 48.75 103.594 48.75H85.3125V73.125Z" fill="#4F4F4F"/>
<path d="M60.9375 65V73.125H73.125V71.0938C73.125 69.4776 72.483 67.9276 71.3402 66.7848C70.1974 65.642 68.6474 65 67.0312 65H60.9375Z" fill="#4F4F4F"/>
<path d="M20.3125 87.3438C22.5562 87.3438 24.375 85.5249 24.375 83.2812C24.375 81.0376 22.5562 79.2188 20.3125 79.2188C18.0688 79.2188 16.25 81.0376 16.25 83.2812C16.25 85.5249 18.0688 87.3438 20.3125 87.3438Z" fill="#4F4F4F"/>
<path d="M73.1251 85.3125H62.6804C62.2699 86.8898 61.3919 88.306 60.1616 89.375H73.1251V85.3125Z" fill="#4F4F4F"/>
<path d="M12.1875 93.4375H73.125V97.5H12.1875V93.4375Z" fill="#4F4F4F"/>
<path d="M79.2188 8.125C78.0135 8.125 76.8354 8.48239 75.8332 9.15198C74.8311 9.82157 74.0501 10.7733 73.5889 11.8868C73.1276 13.0003 73.007 14.2255 73.2421 15.4076C73.4772 16.5897 74.0576 17.6755 74.9098 18.5277C75.7621 19.3799 76.8479 19.9603 78.0299 20.1954C79.212 20.4305 80.4372 20.3099 81.5507 19.8486C82.6642 19.3874 83.6159 18.6064 84.2855 17.6043C84.9551 16.6021 85.3125 15.424 85.3125 14.2187C85.3125 12.6026 84.6705 11.0526 83.5277 9.90982C82.3849 8.76702 80.8349 8.125 79.2188 8.125ZM81.25 16.25H77.1875V12.1875H81.25V16.25Z" fill="#4F4F4F"/>
<path d="M99.5312 121.875C105.14 121.875 109.688 117.328 109.688 111.719C109.688 106.11 105.14 101.562 99.5312 101.562C93.9221 101.562 89.375 106.11 89.375 111.719C89.375 117.328 93.9221 121.875 99.5312 121.875Z" fill="#4F4F4F"/>
<path d="M77.1875 24.1719V97.5H81.25V24.1719C79.9097 24.4455 78.5278 24.4455 77.1875 24.1719Z" fill="#4F4F4F"/>
<path d="M14.9947 77.1875H8.125V81.25H12.4759C12.8864 79.6727 13.7644 78.2565 14.9947 77.1875Z" fill="#4F4F4F"/>
<path d="M115.781 77.1875H85.3125V109.688H85.475C85.9607 106.306 87.6493 103.212 90.2311 100.975C92.8129 98.7374 96.1148 97.5057 99.5312 97.5057C102.948 97.5057 106.25 98.7374 108.831 100.975C111.413 103.212 113.102 106.306 113.587 109.688H115.781C117.397 109.688 118.947 109.045 120.09 107.903C121.233 106.76 121.875 105.21 121.875 103.594V83.2812C121.875 81.6651 121.233 80.1151 120.09 78.9723C118.947 77.8295 117.397 77.1875 115.781 77.1875ZM97.5 85.3125H89.375V81.25H97.5V85.3125Z" fill="#4F4F4F"/>
<path d="M8.125 101.562V109.688H10.3187C10.7621 106.599 12.2122 103.743 14.4442 101.562H8.125Z" fill="#4F4F4F"/>
<path d="M24.375 121.875C29.9841 121.875 34.5312 117.328 34.5312 111.719C34.5312 106.11 29.9841 101.562 24.375 101.562C18.7659 101.562 14.2188 106.11 14.2188 111.719C14.2188 117.328 18.7659 121.875 24.375 121.875Z" fill="#4F4F4F"/>
<path d="M34.3057 101.562C36.5376 103.743 37.9878 106.599 38.4311 109.688H42.8186C43.262 106.599 44.7121 103.743 46.9441 101.562H34.3057Z" fill="#4F4F4F"/>
<path d="M70.9311 109.688H81.2499V101.562H66.8057C69.0376 103.743 70.4878 106.599 70.9311 109.688Z" fill="#4F4F4F"/>
<path d="M56.875 121.875C62.4841 121.875 67.0312 117.328 67.0312 111.719C67.0312 106.11 62.4841 101.562 56.875 101.562C51.2659 101.562 46.7188 106.11 46.7188 111.719C46.7188 117.328 51.2659 121.875 56.875 121.875Z" fill="#4F4F4F"/>
<path d="M54.3155 42.4531C54.5745 42.5234 54.845 42.5398 55.1106 42.5014C55.3761 42.463 55.6309 42.3705 55.8593 42.2297C57.26 41.4216 58.9243 41.203 60.4861 41.6221C62.0479 42.0411 63.3793 43.0634 64.1874 44.4641C64.9955 45.8647 65.2141 47.5291 64.795 49.0909C64.376 50.6527 63.3537 51.9841 61.953 52.7922C61.3144 53.1637 60.6115 53.4118 59.8812 53.5234C60.4051 54.7796 60.7339 56.1085 60.8562 57.4641C61.9604 57.2709 63.0203 56.8785 63.9843 56.3062C65.724 55.3013 67.1265 53.803 68.0145 52.0008C68.9025 50.1986 69.236 48.1736 68.9729 46.1818C68.7098 44.19 67.8619 42.3211 66.5364 40.8113C65.2109 39.3015 63.4674 38.2187 61.5265 37.7C59.6083 37.1799 57.5786 37.2436 55.6968 37.8828L50.253 28.4375H45.5405L53.0765 41.4984C53.3546 41.9613 53.7971 42.3022 54.3155 42.4531Z" fill="#4F4F4F"/>
</svg>
