<svg width="130" height="130" viewBox="0 0 130 130" fill="none" xmlns="http://www.w3.org/2000/svg">
<g clip-path="url(#clip0)">
<path d="M100.101 28.7275C107.899 28.7275 114.221 22.4076 114.221 14.6094C114.221 6.81129 107.899 0.489258 100.101 0.489258C92.303 0.489258 85.9807 6.81155 85.9807 14.6094C85.9807 22.4076 92.303 28.7275 100.101 28.7275Z" fill="#4F4F4F"/>
<path d="M129.684 74.1401L118.799 40.6731C117.344 36.2063 113.211 33.2051 108.513 33.2051H91.702C87.0056 33.2051 82.8727 36.2063 81.418 40.6731C81.4172 40.6752 81.4175 40.6773 81.4167 40.6792L70.5306 74.1401C70.5195 74.1748 70.5187 74.2098 70.5078 74.2446H83.9807L85.9805 68.0973V74.2446H98.4705C98.7945 74.2446 99.0867 74.3636 99.4007 74.4084L94.5635 68.6172C93.9248 67.8512 93.6535 66.8407 93.8205 65.8581L97.2195 46.0289L97.7485 42.9415C97.7962 42.6702 98.0304 42.4722 98.3059 42.4722H101.896C102.171 42.4722 102.405 42.6702 102.453 42.9415L102.982 46.0289L106.381 65.8581C106.548 66.8407 106.277 67.8515 105.638 68.6172L100.715 74.5116C100.665 74.5707 100.578 74.5628 100.515 74.6046C102.811 75.3391 104.636 77.2294 105.139 79.6821L106.788 87.6987L111.173 109.016C111.589 111.028 111.084 113.094 109.781 114.698C108.546 116.209 106.749 117.108 104.811 117.196V124.297C104.811 124.475 104.769 124.642 104.759 124.818C105.813 126.973 108.006 128.469 110.568 128.469C114.152 128.469 117.056 125.566 117.056 121.982V87.6989V81.1011V76.7715L117.49 78.106C118.37 80.8153 120.884 82.5372 123.584 82.5372C124.242 82.5372 124.912 82.4349 125.569 82.2201C128.939 81.1263 130.78 77.507 129.684 74.1401ZM102.382 39.4415C102.382 39.7543 102.13 40.007 101.817 40.007H98.4727C98.1598 40.007 97.9073 39.7541 97.9073 39.4415V35.5071C97.9073 35.1937 98.1598 34.941 98.4727 34.941H101.817C102.13 34.941 102.382 35.1937 102.382 35.5071V39.4415Z" fill="#4F4F4F"/>
<path d="M55.9679 20.7228C59.2741 21.8372 60.7038 22.9103 60.7038 24.6052C60.7038 26.3915 58.9609 27.3771 56.4168 27.3771C54.609 27.3771 52.9057 27.0117 51.4237 26.4899C50.7895 26.2642 50.0879 26.3204 49.495 26.6381C48.9005 26.9555 48.4659 27.5065 48.2986 28.1574L48.2573 28.3223C47.8898 29.7581 48.7123 31.23 50.1274 31.6725C51.6324 32.1424 53.4269 32.4741 55.2536 32.5552V34.6115C55.2536 35.8201 56.2325 36.799 57.4411 36.799C58.6515 36.799 59.6305 35.8201 59.6305 34.6115V32.2424C64.7651 31.3509 67.5808 27.9551 67.5808 23.981C67.5808 19.9605 65.4373 17.5081 60.1213 15.6322C56.3267 14.2022 54.7628 13.2646 54.7628 11.7912C54.7628 10.5388 55.7001 9.29077 58.6059 9.29077C60.2276 9.29077 61.5549 9.55168 62.6216 9.87304C63.2646 10.0693 63.9617 9.98971 64.5461 9.66013C65.1302 9.33001 65.5561 8.77531 65.7234 8.12383L65.765 7.96076C66.1092 6.61909 65.3076 5.24773 63.9681 4.88659C62.8452 4.58378 61.4985 4.36238 59.854 4.2892V2.54662C59.854 1.33832 58.875 0.359375 57.6662 0.359375C56.4555 0.359375 55.4766 1.33832 55.4766 2.54662V4.60075C50.6993 5.53754 47.9314 8.62046 47.9314 12.549C47.9319 16.88 51.1901 19.1136 55.9679 20.7228Z" fill="#4F4F4F"/>
<path d="M24.8179 47.4604C19.2362 47.4604 14.7111 51.781 14.7111 57.1101C14.7111 57.1101 14.709 84.5515 14.709 84.8561C14.709 89.0222 18.0886 92.4013 22.2563 92.4013H34.3446L37.0719 79.6379C37.2536 78.7804 37.6213 78.0096 38.0888 77.3107H34.9282V65.9643L38.2858 67.0246L45.1122 69.1803C45.6403 69.3474 46.181 69.4288 46.7214 69.4288C47.8567 69.4288 48.9757 69.0676 49.9106 68.3727L62.9874 58.6482C65.3258 56.9099 65.8153 53.627 64.1286 51.2637C65.0885 51.8266 65.9534 52.5863 66.659 53.5345C68.1165 55.4942 68.5909 57.8692 68.2022 60.0994C68.3233 59.939 68.4331 59.7687 68.4954 59.5747L72.6602 46.7527C72.9709 45.7926 72.4472 44.7638 71.4866 44.4525L66.1729 42.7242C65.9892 42.6662 65.7994 42.6367 65.6092 42.6367C65.3239 42.6367 65.0394 42.7038 64.7809 42.8348C64.3484 43.0543 64.0212 43.438 63.873 43.8975L62.0252 49.5853C60.5973 48.9237 58.9703 48.9423 57.5094 49.6489C57.2089 49.7942 56.8865 49.8669 56.6092 50.0737L45.7263 58.168L34.5522 54.6388C33.402 50.5149 29.5002 47.4604 24.8179 47.4604Z" fill="#4F4F4F"/>
<path d="M24.6705 45.6031C31.6485 45.6031 37.3093 39.9442 37.3093 32.9643C37.3093 25.9826 31.6485 20.3242 24.6705 20.3242C17.6907 20.3242 12.0283 25.9826 12.0283 32.9643C12.0283 39.9442 17.6909 45.6031 24.6705 45.6031Z" fill="#4F4F4F"/>
<path d="M30.8041 108.971L33.1244 98.1122C32.2542 97.4981 31.2509 97.0588 30.1046 97.0588H21.7931C15.6692 97.0588 10.6867 92.0766 10.6867 85.9526V65.2906C10.6867 62.3392 8.29476 59.9473 5.34335 59.9473C2.39194 59.947 0 62.3389 0 65.2903V85.9524C0 97.9685 9.7767 107.745 21.7931 107.745H24.7613V124.297C24.7613 127.249 27.1532 129.641 30.1046 129.641C33.056 129.641 35.4482 127.249 35.4482 124.297V116.862C34.1803 116.468 33.0316 115.74 32.1712 114.679C30.8685 113.072 30.3716 110.991 30.8041 108.971Z" fill="#4F4F4F"/>
<path d="M106.987 109.882L100.953 80.5433C100.711 79.3636 99.6732 78.5186 98.4708 78.5186H43.7303C42.5342 78.5186 41.5012 79.3535 41.2527 80.5242L34.9845 109.863C34.8239 110.612 35.0095 111.391 35.4915 111.986C35.9736 112.58 36.6961 112.927 37.4621 112.927H41.6804V124.297C41.6804 126.657 43.594 128.571 45.9552 128.571C48.3156 128.571 50.23 126.657 50.23 124.297V112.927H91.9875V124.297C91.9875 126.657 93.9019 128.571 96.2623 128.571C98.6233 128.571 100.537 126.657 100.537 124.297V112.927H104.505C105.267 112.927 105.987 112.585 106.469 111.994C106.949 111.404 107.141 110.629 106.987 109.882Z" fill="#4F4F4F"/>
</g>
<defs>
<clipPath id="clip0">
<rect width="130" height="130" fill="white"/>
</clipPath>
</defs>
</svg>
