<svg width="32" height="32" viewBox="0 0 32 32" fill="none" xmlns="http://www.w3.org/2000/svg">
<g clip-path="url(#clip0)">
<path d="M0.743392 32C0.563705 32 0.3889 31.929 0.259261 31.7979C0.0883629 31.625 0.022445 31.374 0.086654 31.1394L2.16698 23.5427C0.87181 21.2007 0.188949 18.5513 0.189925 15.8618C0.193588 7.11548 7.31126 0 16.0569 0C20.2988 0.00170899 24.2847 1.65405 27.2805 4.6521C30.2759 7.65039 31.9248 11.636 31.9236 15.8745C31.9197 24.6211 24.802 31.7371 16.0569 31.7371C16.0569 31.7371 16.0503 31.7371 16.05 31.7371C13.4956 31.7361 10.9631 31.1135 8.70824 29.9343L0.916 31.9778C0.858871 31.9927 0.800765 32 0.743392 32Z" fill="#E5E5E5"/>
<path d="M0.743408 31.3188L2.89771 23.4519C1.56885 21.1494 0.869873 18.5376 0.87085 15.8618C0.874268 7.49097 7.68628 0.680664 16.0569 0.680664C20.1189 0.682373 23.9316 2.26343 26.7988 5.13306C29.6658 8.00269 31.2441 11.8171 31.2427 15.874C31.239 24.2446 24.426 31.0559 16.0569 31.0559C16.0564 31.0559 16.0571 31.0559 16.0569 31.0559H16.0503C13.5088 31.0549 11.0117 30.4175 8.7937 29.2078L0.743408 31.3188ZM9.1665 26.4595L9.62769 26.7327C11.5652 27.8826 13.7866 28.4907 16.052 28.4919H16.0569C23.0134 28.4919 28.6755 22.8308 28.6785 15.873C28.6797 12.5012 27.3682 9.33057 24.9851 6.94556C22.6018 4.56055 19.4331 3.24634 16.0615 3.24487C9.09937 3.24487 3.4375 8.90527 3.43481 15.8628C3.43384 18.2471 4.10083 20.5688 5.3645 22.5781L5.66479 23.0557L4.3894 27.7119L9.1665 26.4595Z" fill="white"/>
<path d="M1.27148 30.7886L3.35132 23.1936C2.06812 20.9709 1.39355 18.4492 1.39429 15.8665C1.39746 7.7854 7.97388 1.21094 16.0542 1.21094C19.9761 1.21265 23.657 2.73901 26.4243 5.50928C29.1924 8.27954 30.7158 11.9619 30.7144 15.8779C30.7109 23.9592 24.1343 30.5344 16.0549 30.5344C16.0542 30.5344 16.0552 30.5344 16.0549 30.5344H16.0483C13.595 30.5334 11.1841 29.9177 9.04297 28.7507L1.27148 30.7886Z" fill="#64B161"/>
<path d="M0.743408 31.3188L2.89771 23.4519C1.56885 21.1494 0.869873 18.5376 0.87085 15.8618C0.874268 7.49097 7.68628 0.680664 16.0569 0.680664C20.1189 0.682373 23.9316 2.26343 26.7988 5.13306C29.6658 8.00269 31.2441 11.8171 31.2427 15.874C31.239 24.2446 24.426 31.0559 16.0569 31.0559C16.0564 31.0559 16.0571 31.0559 16.0569 31.0559H16.0503C13.5088 31.0549 11.0117 30.4175 8.7937 29.2078L0.743408 31.3188ZM9.1665 26.4595L9.62769 26.7327C11.5652 27.8826 13.7866 28.4907 16.052 28.4919H16.0569C23.0134 28.4919 28.6755 22.8308 28.6785 15.873C28.6797 12.5012 27.3682 9.33057 24.9851 6.94556C22.6018 4.56055 19.4331 3.24634 16.0615 3.24487C9.09937 3.24487 3.4375 8.90527 3.43481 15.8628C3.43384 18.2471 4.10083 20.5688 5.3645 22.5781L5.66479 23.0557L4.3894 27.7119L9.1665 26.4595Z" fill="white"/>
<path fill-rule="evenodd" clip-rule="evenodd" d="M12.2615 9.51514C11.9773 8.88331 11.678 8.87061 11.4075 8.85962C11.1863 8.8501 10.9331 8.85059 10.6804 8.85059C10.4275 8.85059 10.0164 8.9458 9.6687 9.32544C9.3208 9.70508 8.34033 10.6231 8.34033 12.49C8.34033 14.3572 9.7002 16.1611 9.88989 16.4146C10.0796 16.6677 12.5149 20.6213 16.3716 22.1423C19.5769 23.4065 20.229 23.155 20.9248 23.0918C21.6206 23.0286 23.1697 22.1738 23.4858 21.2878C23.8022 20.4019 23.8022 19.6426 23.7073 19.4836C23.6123 19.3257 23.3594 19.2307 22.98 19.041C22.6006 18.8513 20.7351 17.9331 20.3872 17.8066C20.0393 17.6799 19.7864 17.6169 19.5334 17.9968C19.2803 18.3762 18.5537 19.2307 18.3323 19.4836C18.1108 19.7373 17.8894 19.769 17.51 19.5791C17.1306 19.3889 15.9084 18.9885 14.4587 17.6958C13.3308 16.6902 12.5691 15.448 12.3477 15.0681C12.1265 14.6887 12.344 14.5012 12.5144 14.2939C12.8213 13.9207 13.3362 13.2495 13.4626 12.9966C13.5891 12.7432 13.5259 12.5217 13.4312 12.3318C13.3362 12.1421 12.5986 10.2656 12.2615 9.51514Z" fill="white"/>
</g>
<defs>
<clipPath id="clip0">
<rect width="32" height="32" fill="white"/>
</clipPath>
</defs>
</svg>
