<svg width="32" height="32" viewBox="0 0 32 32" fill="none" xmlns="http://www.w3.org/2000/svg">
<g clip-path="url(#clip0)">
<path d="M0.74327 32C0.563583 32 0.388778 31.929 0.259139 31.7979C0.0882409 31.625 0.0223229 31.374 0.0865319 31.1394L2.16685 23.5427C0.871688 21.2007 0.188827 18.5513 0.189803 15.8618C0.193465 7.11548 7.31114 0 16.0567 0C20.2987 0.00170899 24.2845 1.65405 27.2804 4.6521C30.2757 7.65039 31.9247 11.636 31.9235 15.8745C31.9195 24.6211 24.8019 31.7371 16.0567 31.7371C16.0567 31.7371 16.0502 31.7371 16.0499 31.7371C13.4955 31.7361 10.963 31.1135 8.70811 29.9343L0.915878 31.9778C0.858749 31.9927 0.800643 32 0.74327 32Z" fill="#333333"/>
<path d="M0.743408 31.3188L2.89771 23.4519C1.56885 21.1494 0.869873 18.5376 0.87085 15.8618C0.874268 7.49097 7.68628 0.680664 16.0569 0.680664C20.1189 0.682373 23.9316 2.26343 26.7988 5.13306C29.6658 8.00269 31.2441 11.8171 31.2427 15.874C31.239 24.2446 24.426 31.0559 16.0569 31.0559C16.0564 31.0559 16.0571 31.0559 16.0569 31.0559H16.0503C13.5088 31.0549 11.0117 30.4175 8.7937 29.2078L0.743408 31.3188ZM9.1665 26.4595L9.62769 26.7327C11.5652 27.8826 13.7866 28.4907 16.052 28.4919H16.0569C23.0134 28.4919 28.6755 22.8308 28.6785 15.873C28.6797 12.5012 27.3682 9.33057 24.9851 6.94556C22.6018 4.56055 19.4331 3.24634 16.0615 3.24487C9.09937 3.24487 3.4375 8.90527 3.43481 15.8628C3.43384 18.2471 4.10083 20.5688 5.3645 22.5781L5.66479 23.0557L4.3894 27.7119L9.1665 26.4595Z" fill="white"/>
<path d="M1.27136 30.7891L3.3512 23.1941C2.06799 20.9714 1.39343 18.4497 1.39417 15.8669C1.39734 7.78589 7.97376 1.21143 16.0541 1.21143C19.976 1.21313 23.6569 2.7395 26.4242 5.50977C29.1923 8.28003 30.7157 11.9624 30.7142 15.8784C30.7108 23.9597 24.1342 30.5349 16.0548 30.5349C16.0541 30.5349 16.0551 30.5349 16.0548 30.5349H16.0482C13.5949 30.5339 11.184 29.9182 9.04285 28.7512L1.27136 30.7891Z" fill="#333333"/>
<path d="M0.743408 31.3188L2.89771 23.4519C1.56885 21.1494 0.869873 18.5376 0.87085 15.8618C0.874268 7.49097 7.68628 0.680664 16.0569 0.680664C20.1189 0.682373 23.9316 2.26343 26.7988 5.13306C29.6658 8.00269 31.2441 11.8171 31.2427 15.874C31.239 24.2446 24.426 31.0559 16.0569 31.0559C16.0564 31.0559 16.0571 31.0559 16.0569 31.0559H16.0503C13.5088 31.0549 11.0117 30.4175 8.7937 29.2078L0.743408 31.3188ZM9.1665 26.4595L9.62769 26.7327C11.5652 27.8826 13.7866 28.4907 16.052 28.4919H16.0569C23.0134 28.4919 28.6755 22.8308 28.6785 15.873C28.6797 12.5012 27.3682 9.33057 24.9851 6.94556C22.6018 4.56055 19.4331 3.24634 16.0615 3.24487C9.09937 3.24487 3.4375 8.90527 3.43481 15.8628C3.43384 18.2471 4.10083 20.5688 5.3645 22.5781L5.66479 23.0557L4.3894 27.7119L9.1665 26.4595Z" fill="#333333"/>
<path fill-rule="evenodd" clip-rule="evenodd" d="M12.2616 9.51514C11.9774 8.88331 11.6781 8.87061 11.4076 8.85962C11.1864 8.8501 10.9332 8.85059 10.6805 8.85059C10.4276 8.85059 10.0165 8.9458 9.66882 9.32544C9.32092 9.70508 8.34045 10.6231 8.34045 12.49C8.34045 14.3572 9.70032 16.1611 9.89001 16.4146C10.0797 16.6677 12.515 20.6213 16.3717 22.1423C19.577 23.4065 20.2291 23.155 20.9249 23.0918C21.6207 23.0286 23.1698 22.1738 23.486 21.2878C23.8024 20.4019 23.8024 19.6426 23.7074 19.4836C23.6124 19.3257 23.3595 19.2307 22.9801 19.041C22.6007 18.8513 20.7352 17.9331 20.3873 17.8066C20.0394 17.6799 19.7865 17.6169 19.5336 17.9968C19.2804 18.3762 18.5538 19.2307 18.3324 19.4836C18.111 19.7373 17.8895 19.769 17.5101 19.5791C17.1307 19.3889 15.9086 18.9885 14.4589 17.6958C13.3309 16.6902 12.5692 15.448 12.3478 15.0681C12.1266 14.6887 12.3441 14.5012 12.5145 14.2939C12.8214 13.9207 13.3363 13.2495 13.4628 12.9966C13.5892 12.7432 13.526 12.5217 13.4313 12.3318C13.3363 12.1421 12.5988 10.2656 12.2616 9.51514Z" fill="white"/>
</g>
<defs>
<clipPath id="clip0">
<rect width="32" height="32" fill="white"/>
</clipPath>
</defs>
</svg>
